<?xml version="1.0" standalone="no"?>
<!DOCTYPE svg PUBLIC "-//W3C//DTD SVG 1.1//EN" "http://www.w3.org/Graphics/SVG/1.1/DTD/svg11.dtd" >
<svg xmlns="http://www.w3.org/2000/svg" xmlns:xlink="http://www.w3.org/1999/xlink" version="1.1">
<metadata>
Created by FontForge 20170731 at Fri Feb 16 16:25:11 2001
 By Aleksey,,,
(c) 2001 Levi
</metadata>
<defs>
<font id="DanubeBold" horiz-adv-x="305" >
  <font-face 
    font-family="Danube"
    font-weight="700"
    font-stretch="normal"
    units-per-em="1000"
    panose-1="0 0 7 0 0 0 0 0 0 0"
    ascent="800"
    descent="-200"
    x-height="813"
    cap-height="825"
    bbox="-36 -441 1475 1241"
    underline-thickness="20"
    underline-position="-163"
    unicode-range="U+0020-007A"
  />
<missing-glyph horiz-adv-x="500" 
d="M63 0v1216h375v-1216h-375zM125 63h250v1091h-250v-1091z" />
    <glyph glyph-name=".notdef" horiz-adv-x="500" 
d="M63 0v1216h375v-1216h-375zM125 63h250v1091h-250v-1091z" />
    <glyph glyph-name=".null" horiz-adv-x="0" 
 />
    <glyph glyph-name="nonmarkingreturn" horiz-adv-x="471" 
 />
    <glyph glyph-name="space" unicode=" " horiz-adv-x="471" 
 />
    <glyph glyph-name="exclam" unicode="!" horiz-adv-x="304" 
d="M-25 411v414q104 0 161 -57t57 -136v-414q-104 0 -161 57t-57 136zM-25 168v83q104 0 161 -57t57 -136v-83q-104 0 -161 57t-57 136z" />
    <glyph glyph-name="quotedbl" unicode="&#x22;" horiz-adv-x="517" 
d="M193 605v220q104 0 161 -57t57 -136v-220q-104 0 -161 56.5t-57 136.5zM-25 605v220q104 0 161 -57t57 -136v-220q-104 0 -161 56.5t-57 136.5z" />
    <glyph glyph-name="quotesingle" unicode="'" horiz-adv-x="299" 
d="M-25 605v220q104 0 161 -57t57 -136v-220q-104 0 -161 56.5t-57 136.5z" />
    <glyph glyph-name="plus" unicode="+" horiz-adv-x="744" 
d="M425 296v-56q0 -76 -53.5 -131t-155.5 -55v242h-56q-76 0 -130.5 54t-54.5 154h241v56q0 76 53.5 131t155.5 55v-242h56q76 0 130.5 -54t54.5 -154h-241z" />
    <glyph glyph-name="comma" unicode="," horiz-adv-x="300" 
d="M-25 30v221q104 0 161 -57t57 -136v-221q-104 0 -161 57t-57 136z" />
    <glyph glyph-name="hyphen" unicode="-" horiz-adv-x="767" 
d="M160 296q-76 0 -130.5 54t-54.5 154h506q76 0 130.5 -54t54.5 -154h-506z" />
    <glyph glyph-name="hyphen" unicode="&#x2010;" horiz-adv-x="767" 
d="M160 296q-76 0 -130.5 54t-54.5 154h506q76 0 130.5 -54t54.5 -154h-506z" />
    <glyph glyph-name="period" unicode="." horiz-adv-x="300" 
d="M-25 168v83q104 0 161 -57t57 -136v-83q-104 0 -161 57t-57 136z" />
    <glyph glyph-name="slash" unicode="/" horiz-adv-x="449" 
d="M152 -25h-188l314 850h188z" />
    <glyph glyph-name="zero" unicode="0" horiz-adv-x="935" 
d="M404 -25q-177 0 -303 125t-126 301v424h858v-424q0 -176 -126 -301t-303 -125zM616 616h-423v-215q0 -89 61 -153t150 -64q88 0 150 67t62 156v209z" />
    <glyph glyph-name="one" unicode="1" 
d="M-25 -25v850q104 0 161 -57t57 -136v-657h-218z" />
    <glyph glyph-name="two" unicode="2" horiz-adv-x="1005" 
d="M356 -25v477q0 68 -46.5 116t-114.5 48h-35q-77 0 -131 54t-54 155h255q141 0 241.5 -99t100.5 -239l1 -303h197q76 0 130 -54t54 -155h-598z" />
    <glyph glyph-name="three" unicode="3" horiz-adv-x="761" 
d="M237 -25h-262q0 101 54.5 155t130.5 54h77q58 0 107.5 30.5t77.5 81.5h-262q-76 0 -130.5 54t-54.5 154h447q-28 51 -77.5 81.5t-107.5 30.5h-77q-76 0 -130.5 54t-54.5 155h262q177 0 303 -125t126 -301q0 -177 -126 -300.5t-303 -123.5z" />
    <glyph glyph-name="four" unicode="4" horiz-adv-x="846" 
d="M516 168v128h-348q-80 0 -136.5 56t-56.5 136v337q104 0 161 -57t57 -136v-128h323v321q105 0 161.5 -56.5t56.5 -136.5v-657q-104 0 -161 57t-57 136z" />
    <glyph glyph-name="five" unicode="5" horiz-adv-x="1019" 
d="M768 616h-35q-67 0 -114 -48.5t-47 -115.5v-477h-597q0 101 54 155t130 54h196l1 303q0 140 101 239t242 99h255q0 -101 -54.5 -155t-131.5 -54z" />
    <glyph glyph-name="six" unicode="6" horiz-adv-x="930" 
d="M193 825h213q177 0 304 -123.5t127 -300.5q0 -176 -127 -301t-304 -125t-303.5 125t-126.5 301l-1 416q0 176 127 300t303 124h261q0 -101 -54 -155t-130 -54h-77q-86 0 -147.5 -60.5t-64.5 -146.5zM406 616h-211v-215q0 -89 61 -153t150 -64t150 64t61 153
q0 88 -61.5 151.5t-149.5 63.5z" />
    <glyph glyph-name="seven" unicode="7" horiz-adv-x="774" 
d="M448 -25v426q0 88 -62 151.5t-150 63.5h-77q-76 0 -130 54t-54 155h261q177 0 303.5 -124t126.5 -300v-426h-218z" />
    <glyph glyph-name="eight" unicode="8" horiz-adv-x="929" 
d="M404 -25q-177 0 -303 124t-126 300t126 301t303 125t303.5 -125t126.5 -301t-126.5 -300t-303.5 -124zM404 616q-58 0 -107.5 -30.5t-77.5 -81.5h370q-28 51 -77.5 81.5t-107.5 30.5zM219 296q27 -51 77 -81.5t108 -30.5t108 30.5t78 81.5h-371z" />
    <glyph glyph-name="nine" unicode="9" horiz-adv-x="939" 
d="M619 -25h-214q-177 0 -303.5 124t-126.5 300t126.5 301t303.5 125t304 -125t127 -301l1 -416q0 -177 -127 -300.5t-304 -123.5h-261q0 101 54 155t130 54h77q86 0 148 60.5t65 146.5zM616 399q0 89 -61 153t-150 64t-150 -64t-61 -153q0 -88 61.5 -151.5t149.5 -63.5h211
v215z" />
    <glyph glyph-name="colon" unicode=":" 
d="M-25 411v82q104 0 161 -56.5t57 -135.5v-83q-104 0 -161 57t-57 136zM-25 168v83q104 0 161 -57t57 -136v-83q-104 0 -161 57t-57 136z" />
    <glyph glyph-name="semicolon" unicode=";" horiz-adv-x="304" 
d="M-25 411v82q104 0 161 -56.5t57 -135.5v-83q-104 0 -161 57t-57 136zM-25 30v221q104 0 161 -57t57 -136v-221q-104 0 -161 57t-57 136z" />
    <glyph glyph-name="equal" unicode="=" horiz-adv-x="754" 
d="M160 437q-76 0 -130.5 54t-54.5 155h506q76 0 130.5 -54t54.5 -155h-506zM160 157q-76 0 -130.5 54t-54.5 155h506q76 0 130.5 -54t54.5 -155h-506z" />
    <glyph glyph-name="question" unicode="?" horiz-adv-x="678" 
d="M360 447l-4 -9v14q0 68 -46.5 116t-114.5 48h-35q-77 0 -131 54t-54 155h255q141 0 241.5 -98.5t100.5 -239.5v-269q-104 0 -161 57t-57 132q0 21 6 40zM355 168v83q104 0 160.5 -57t56.5 -136v-83q-104 0 -160.5 57t-56.5 136z" />
    <glyph glyph-name="A" unicode="A" horiz-adv-x="944" 
d="M405 -25q-177 0 -303.5 124t-126.5 300t126.5 301t303.5 125t304 -125t127 -301v-424h-431zM616 399q0 89 -61 153t-150 64t-150 -64t-61 -153q0 -88 61.5 -151.5t149.5 -63.5h211v215z" />
    <glyph glyph-name="B" unicode="B" horiz-adv-x="930" 
d="M405 -25q-177 0 -303.5 125t-126.5 301v623q104 0 161 -57t57 -136v-6h212q177 0 304 -123.5t127 -300.5q0 -176 -127 -301t-304 -125zM405 616h-211v-215q0 -89 61 -153t150 -64t150 64t61 153q0 88 -61.5 151.5t-149.5 63.5z" />
    <glyph glyph-name="C" unicode="C" horiz-adv-x="726" 
d="M404 -25q-177 0 -303 124t-126 300t126 301t303 125h261q0 -101 -54 -155t-130 -54h-77q-88 0 -150.5 -64.5t-62.5 -152.5t62.5 -151.5t150.5 -63.5h77q76 0 130 -54t54 -155h-261z" />
    <glyph glyph-name="D" unicode="D" horiz-adv-x="931" 
d="M405 -25h-430v424q0 176 126.5 301t303.5 125t304 -125t127 -301q0 -177 -127 -300.5t-304 -123.5zM405 616q-89 0 -150 -64t-61 -153v-215h211q88 0 149.5 63.5t61.5 151.5q0 89 -61 153t-150 64z" />
    <glyph glyph-name="E" unicode="E" horiz-adv-x="760" 
d="M481 296h-133q-44 0 -74 29.5t-30 73.5t30 74.5t74 30.5h318q0 -100 -54.5 -154t-130.5 -54zM404 -25q-177 0 -303 124t-126 300t126 301t303 125h262q0 -101 -54.5 -155t-130.5 -54h-77q-88 0 -149.5 -64.5t-61.5 -152.5t61.5 -151.5t149.5 -63.5h77q76 0 130.5 -54
t54.5 -155h-262z" />
    <glyph glyph-name="F" unicode="F" horiz-adv-x="728" 
d="M481 296h-133q-44 0 -74 29.5t-30 73.5t30 74.5t74 30.5h318q0 -100 -54.5 -154t-130.5 -54zM482 616h-77q-88 0 -150 -63.5t-62 -151.5v-233q0 -79 -57 -136t-161 -57v426q0 176 126.5 300t303.5 124h261q0 -101 -54 -155t-130 -54z" />
    <glyph glyph-name="G" unicode="G" horiz-adv-x="941" 
d="M652 54q-108 -79 -247 -79q-177 0 -303.5 124t-126.5 300t126.5 301t303.5 125h261q0 -101 -54 -155t-130 -54h-77q-88 0 -150 -64.5t-62 -152.5t62 -151.5t150 -63.5q89 0 150 64t61 153q0 79 57 136t161 57v-619q-126 0 -182 79z" />
    <glyph glyph-name="H" unicode="H" horiz-adv-x="846" 
d="M516 168v128h-323v-321q-104 0 -161 57t-57 136v657q104 0 161 -57t57 -136v-128h323v321q105 0 161.5 -56.5t56.5 -136.5v-657q-104 0 -161 57t-57 136z" />
    <glyph glyph-name="I" unicode="I" 
d="M-25 168v657q104 0 161 -57t57 -136v-657q-104 0 -161 57t-57 136z" />
    <glyph glyph-name="J" unicode="J" horiz-adv-x="768" 
d="M236 -25h-261q0 101 54 155t130 54h77q88 0 150 63.5t62 151.5v233q0 79 57 136t161 57v-426q0 -176 -126.5 -300t-303.5 -124z" />
    <glyph glyph-name="K" unicode="K" horiz-adv-x="927" 
d="M601 -25v95q0 88 -61.5 152.5t-149.5 64.5h-197v-312h-218v850q104 0 161 -57t57 -136v-136h197q88 0 149.5 64.5t61.5 152.5v100h218v-100q0 -194 -149 -322q70 -60 109.5 -144.5t39.5 -176.5v-95h-218z" />
    <glyph glyph-name="L" unicode="L" horiz-adv-x="705" 
d="M405 -25q-177 0 -303.5 124t-126.5 300v426q104 0 161 -57t57 -136v-233q0 -88 62 -151.5t150 -63.5h77q76 0 130 -54t54 -155h-261z" />
    <glyph glyph-name="M" unicode="M" horiz-adv-x="1583" 
d="M1257 168v231q0 89 -61 153t-150 64q-88 0 -150 -64.5t-62 -152.5v-424q-104 0 -161 57t-57 136v231q0 89 -61 153t-150 64q-88 0 -150 -64.5t-62 -152.5v-231q0 -80 -56.5 -136.5t-161.5 -56.5v424q0 176 126.5 301t303.5 125q191 0 321 -143q61 67 145 105t175 38
q177 0 303 -124.5t126 -301.5v-424q-104 0 -161 57t-57 136z" />
    <glyph glyph-name="N" unicode="N" horiz-adv-x="942" 
d="M616 168v231q0 88 -61.5 152.5t-149.5 64.5t-150 -64.5t-62 -152.5v-231q0 -79 -57 -136t-161 -57v424q0 177 126.5 301.5t303.5 124.5t303 -125t126 -301v-424q-104 0 -161 57t-57 136z" />
    <glyph glyph-name="O" unicode="O" horiz-adv-x="929" 
d="M404 -25q-177 0 -303 124t-126 300t126 301t303 125t303.5 -125t126.5 -301t-126.5 -300t-303.5 -124zM404 616q-89 0 -150 -64t-61 -153q0 -88 61.5 -151.5t149.5 -63.5t150 63.5t62 151.5q0 89 -62 153t-150 64z" />
    <glyph glyph-name="P" unicode="P" horiz-adv-x="931" 
d="M405 -25h-212v-7q0 -79 -57 -136t-161 -57v624q0 176 126.5 301t303.5 125t304 -125t127 -301q0 -177 -127 -300.5t-304 -123.5zM405 616q-89 0 -150 -64t-61 -153v-215h211q88 0 149.5 63.5t61.5 151.5q0 89 -61 153t-150 64z" />
    <glyph glyph-name="Q" unicode="Q" horiz-adv-x="932" 
d="M616 -32v7h-211q-177 0 -303.5 124t-126.5 300t126.5 301t303.5 125t303.5 -125t126.5 -301v-624q-104 0 -161.5 57t-57.5 136zM616 399q0 89 -61 153t-150 64t-150 -64t-61 -153q0 -88 61.5 -151.5t149.5 -63.5h211v215z" />
    <glyph glyph-name="R" unicode="R" horiz-adv-x="707" 
d="M482 616h-77q-88 0 -150 -63.5t-62 -151.5v-233q0 -79 -57 -136t-161 -57v426q0 176 126.5 300t303.5 124h261q0 -101 -54 -155t-130 -54z" />
    <glyph glyph-name="S" unicode="S" horiz-adv-x="1004" 
d="M768 616h-35q-67 0 -114 -48.5t-47 -115.5v-139q0 -141 -100.5 -239.5t-241.5 -98.5h-255q0 101 54 155t130 54h36q68 0 114.5 48t46.5 116v139q0 141 101 239.5t242 98.5h255q0 -101 -54.5 -155t-131.5 -54z" />
    <glyph glyph-name="T" unicode="T" horiz-adv-x="902" 
d="M647 604h-135v-629q-104 0 -161 57t-57 136v436h-135q-76 0 -130 54t-54 155h856q0 -101 -54 -155t-130 -54z" />
    <glyph glyph-name="U" unicode="U" horiz-adv-x="936" 
d="M405 -25q-177 0 -303.5 124.5t-126.5 301.5v424q104 0 161 -57t57 -136v-231q0 -88 62 -152.5t150 -64.5t149.5 64.5t61.5 152.5v231q0 79 57 136t161 57v-424q0 -176 -126 -301t-303 -125z" />
    <glyph glyph-name="V" unicode="V" horiz-adv-x="936" 
d="M404 -25h-429v850q104 0 161 -57t57 -136v-448h211q88 0 150 63.5t62 151.5v233q0 79 57 136t161 57v-426q0 -177 -126.5 -300.5t-303.5 -123.5z" />
    <glyph glyph-name="W" unicode="W" horiz-adv-x="1577" 
d="M1046 -25q-192 0 -320 143q-131 -143 -322 -143q-177 0 -303 124t-126 300v426q104 0 161 -57t57 -136v-233q0 -88 61.5 -151.5t149.5 -63.5t150 63.5t62 151.5v426q104 0 161 -57t57 -136v-233q0 -88 62 -151.5t150 -63.5t149.5 63.5t61.5 151.5v233q0 79 57 136t161 57
v-426q0 -177 -126 -300.5t-303 -123.5z" />
    <glyph glyph-name="X" unicode="X" horiz-adv-x="943" 
d="M616 -25v115q0 88 -61.5 152.5t-149.5 64.5q-89 0 -150.5 -64t-61.5 -153v-115h-218v115q0 194 150 322q-150 126 -150 321v80h218v-80q0 -88 62 -152.5t150 -64.5t149.5 64.5t61.5 152.5v80h218v-80q0 -194 -149 -321q71 -60 110 -144.5t39 -177.5v-115h-218z" />
    <glyph glyph-name="Y" unicode="Y" horiz-adv-x="918" 
d="M514 189v-214h-219v215q-140 37 -230 151.5t-90 259.5v224q104 0 161 -57t57 -136v-31q0 -88 62 -152.5t150 -64.5t149.5 64.5t61.5 152.5v31q0 79 57 136t161 57v-224q0 -144 -90 -259.5t-230 -152.5z" />
    <glyph glyph-name="Z" unicode="Z" horiz-adv-x="1007" 
d="M699 -25q-141 0 -242 98.5t-101 239.5v139q0 68 -46.5 116t-114.5 48h-35q-77 0 -131 54t-54 155h255q141 0 241.5 -98.5t100.5 -239.5v-139q0 -67 47 -115.5t114 -48.5h37q76 0 130 -54t54 -155h-255z" />
    <glyph glyph-name="backslash" unicode="\" horiz-adv-x="435" 
d="M278 -25l-314 850h188l314 -850h-188z" />
    <glyph glyph-name="underscore" unicode="_" horiz-adv-x="770" 
d="M160 -25q-76 0 -130.5 54t-54.5 155h506q76 0 130.5 -54t54.5 -155h-506z" />
    <glyph glyph-name="a" unicode="a" horiz-adv-x="944" 
d="M405 -25q-177 0 -303.5 124t-126.5 300t126.5 301t303.5 125t304 -125t127 -301v-424h-431zM616 399q0 89 -61 153t-150 64t-150 -64t-61 -153q0 -88 61.5 -151.5t149.5 -63.5h211v215z" />
    <glyph glyph-name="b" unicode="b" horiz-adv-x="930" 
d="M405 -25q-177 0 -303.5 125t-126.5 301v623q104 0 161 -57t57 -136v-6h212q177 0 304 -123.5t127 -300.5q0 -176 -127 -301t-304 -125zM405 616h-211v-215q0 -89 61 -153t150 -64t150 64t61 153q0 88 -61.5 151.5t-149.5 63.5z" />
    <glyph glyph-name="c" unicode="c" horiz-adv-x="726" 
d="M404 -25q-177 0 -303 124t-126 300t126 301t303 125h261q0 -101 -54 -155t-130 -54h-77q-88 0 -150.5 -64.5t-62.5 -152.5t62.5 -151.5t150.5 -63.5h77q76 0 130 -54t54 -155h-261z" />
    <glyph glyph-name="d" unicode="d" horiz-adv-x="931" 
d="M405 -25h-430v424q0 176 126.5 301t303.5 125t304 -125t127 -301q0 -177 -127 -300.5t-304 -123.5zM405 616q-89 0 -150 -64t-61 -153v-215h211q88 0 149.5 63.5t61.5 151.5q0 89 -61 153t-150 64z" />
    <glyph glyph-name="e" unicode="e" horiz-adv-x="760" 
d="M481 296h-133q-44 0 -74 29.5t-30 73.5t30 74.5t74 30.5h318q0 -100 -54.5 -154t-130.5 -54zM404 -25q-177 0 -303 124t-126 300t126 301t303 125h262q0 -101 -54.5 -155t-130.5 -54h-77q-88 0 -149.5 -64.5t-61.5 -152.5t61.5 -151.5t149.5 -63.5h77q76 0 130.5 -54
t54.5 -155h-262z" />
    <glyph glyph-name="f" unicode="f" horiz-adv-x="728" 
d="M481 296h-133q-44 0 -74 29.5t-30 73.5t30 74.5t74 30.5h318q0 -100 -54.5 -154t-130.5 -54zM482 616h-77q-88 0 -150 -63.5t-62 -151.5v-233q0 -79 -57 -136t-161 -57v426q0 176 126.5 300t303.5 124h261q0 -101 -54 -155t-130 -54z" />
    <glyph glyph-name="g" unicode="g" horiz-adv-x="939" 
d="M619 -25h-214q-177 0 -303.5 124t-126.5 300t126.5 301t303.5 125t304 -125t127 -301l1 -416q0 -177 -127 -300.5t-304 -123.5h-261q0 101 54 155t130 54h77q86 0 148 60.5t65 146.5zM616 399q0 89 -61 153t-150 64t-150 -64t-61 -153q0 -88 61.5 -151.5t149.5 -63.5h211
v215z" />
    <glyph glyph-name="h" unicode="h" horiz-adv-x="932" 
d="M616 168v231q0 88 -61.5 152.5t-149.5 64.5t-150 -64.5t-62 -152.5v-231q0 -79 -57 -136t-161 -57v1049q104 0 161 -57t57 -136v-54q81 48 212 48q177 0 303 -125t126 -301v-424q-104 0 -161 57t-57 136z" />
    <glyph glyph-name="i" unicode="i" 
d="M-25 168v657q104 0 161 -57t57 -136v-657q-104 0 -161 57t-57 136z" />
    <glyph glyph-name="j" unicode="j" horiz-adv-x="768" 
d="M236 -25h-261q0 101 54 155t130 54h77q88 0 150 63.5t62 151.5v233q0 79 57 136t161 57v-426q0 -176 -126.5 -300t-303.5 -124z" />
    <glyph glyph-name="k" unicode="k" horiz-adv-x="924" 
d="M601 -25v95q0 88 -61.5 152.5t-149.5 64.5h-197v-312h-218v1049q104 0 161 -57t57 -136v-335h197q88 0 149.5 64.5t61.5 152.5v100h218v-100q0 -194 -149 -322q70 -60 109.5 -144.5t39.5 -176.5v-95h-218z" />
    <glyph glyph-name="l" unicode="l" horiz-adv-x="622" 
d="M405 -25q-177 0 -303.5 124t-126.5 300v625q104 0 161 -57t57 -136v-432q0 -88 62 -151.5t150 -63.5h77q76 0 130 -54t54 -155h-261z" />
    <glyph glyph-name="m" unicode="m" horiz-adv-x="1583" 
d="M1257 168v231q0 89 -61 153t-150 64q-88 0 -150 -64.5t-62 -152.5v-424q-104 0 -161 57t-57 136v231q0 89 -61 153t-150 64q-88 0 -150 -64.5t-62 -152.5v-231q0 -80 -56.5 -136.5t-161.5 -56.5v424q0 176 126.5 301t303.5 125q191 0 321 -143q61 67 145 105t175 38
q177 0 303 -125t126 -301v-424q-104 0 -161 57t-57 136z" />
    <glyph glyph-name="n" unicode="n" horiz-adv-x="942" 
d="M616 168v231q0 88 -61.5 152.5t-149.5 64.5t-150 -64.5t-62 -152.5v-231q0 -79 -57 -136t-161 -57v424q0 177 126.5 301.5t303.5 124.5t303 -125t126 -301v-424q-104 0 -161 57t-57 136z" />
    <glyph glyph-name="o" unicode="o" horiz-adv-x="929" 
d="M404 -25q-177 0 -303 124t-126 300t126 301t303 125t303.5 -125t126.5 -301t-126.5 -300t-303.5 -124zM404 616q-89 0 -150 -64t-61 -153q0 -88 61.5 -151.5t149.5 -63.5t150 63.5t62 151.5q0 89 -62 153t-150 64z" />
    <glyph glyph-name="p" unicode="p" horiz-adv-x="931" 
d="M405 -25h-212v-7q0 -79 -57 -136t-161 -57v624q0 176 126.5 301t303.5 125t304 -125t127 -301q0 -177 -127 -300.5t-304 -123.5zM405 616q-89 0 -150 -64t-61 -153v-215h211q88 0 149.5 63.5t61.5 151.5q0 89 -61 153t-150 64z" />
    <glyph glyph-name="q" unicode="q" horiz-adv-x="932" 
d="M616 -32v7h-211q-177 0 -303.5 124t-126.5 300t126.5 301t303.5 125t303.5 -125t126.5 -301v-624q-104 0 -161.5 57t-57.5 136zM616 399q0 89 -61 153t-150 64t-150 -64t-61 -153q0 -88 61.5 -151.5t149.5 -63.5h211v215z" />
    <glyph glyph-name="r" unicode="r" horiz-adv-x="724" 
d="M498 616h-77q-88 0 -150 -63.5t-62 -151.5v-233q0 -79 -57 -136t-161 -57v426q0 176 126.5 300t303.5 124h261q0 -101 -54 -155t-130 -54z" />
    <glyph glyph-name="s" unicode="s" horiz-adv-x="1005" 
d="M768 616h-35q-67 0 -114 -48.5t-47 -115.5v-139q0 -141 -100.5 -239.5t-241.5 -98.5h-255q0 101 54 155t130 54h36q68 0 114.5 48t46.5 116v139q0 141 101 239.5t242 98.5h255q0 -101 -54.5 -155t-131.5 -54z" />
    <glyph glyph-name="t" unicode="t" horiz-adv-x="726" 
d="M384 466h-36q-44 0 -74.5 30t-30.5 74t30.5 74.5t74.5 30.5h221q0 -100 -54.5 -154.5t-130.5 -54.5zM404 -25q-177 0 -303 124t-126 300v625q104 0 161 -57t57 -136v-432q0 -88 61.5 -151.5t149.5 -63.5h77q76 0 130.5 -54t54.5 -155h-262z" />
    <glyph glyph-name="u" unicode="u" horiz-adv-x="936" 
d="M405 -25q-177 0 -303.5 124.5t-126.5 301.5v424q104 0 161 -57t57 -136v-231q0 -88 62 -152.5t150 -64.5t149.5 64.5t61.5 152.5v231q0 79 57 136t161 57v-424q0 -176 -126 -301t-303 -125z" />
    <glyph glyph-name="v" unicode="v" horiz-adv-x="936" 
d="M404 -25h-429v850q104 0 161 -57t57 -136v-448h211q88 0 150 63.5t62 151.5v233q0 79 57 136t161 57v-426q0 -177 -126.5 -300.5t-303.5 -123.5z" />
    <glyph glyph-name="w" unicode="w" horiz-adv-x="1577" 
d="M1046 -25q-192 0 -320 143q-131 -143 -322 -143q-177 0 -303 124t-126 300v426q104 0 161 -57t57 -136v-233q0 -88 61.5 -151.5t149.5 -63.5t150 63.5t62 151.5v426q104 0 161 -57t57 -136v-233q0 -88 62 -151.5t150 -63.5t149.5 63.5t61.5 151.5v233q0 79 57 136t161 57
v-426q0 -177 -126 -300.5t-303 -123.5z" />
    <glyph glyph-name="x" unicode="x" horiz-adv-x="943" 
d="M616 -25v115q0 88 -61.5 152.5t-149.5 64.5q-89 0 -150.5 -64t-61.5 -153v-115h-218v115q0 194 150 322q-150 126 -150 321v80h218v-80q0 -88 62 -152.5t150 -64.5t149.5 64.5t61.5 152.5v80h218v-80q0 -194 -149 -321q71 -60 110 -144.5t39 -177.5v-115h-218z" />
    <glyph glyph-name="y" unicode="y" horiz-adv-x="941" 
d="M616 -32v7h-211q-177 0 -303.5 123.5t-126.5 300.5v426q104 0 161 -57t57 -136v-233q0 -88 62 -151.5t150 -63.5h211v448q0 79 57 136t161 57l1 -1050q-104 0 -161.5 57t-57.5 136z" />
    <glyph glyph-name="z" unicode="z" horiz-adv-x="1007" 
d="M699 -25q-141 0 -242 98.5t-101 239.5v139q0 68 -46.5 116t-114.5 48h-35q-77 0 -131 54t-54 155h255q141 0 241.5 -98.5t100.5 -239.5v-139q0 -67 47 -115.5t114 -48.5h37q76 0 130 -54t54 -155h-255z" />
    <glyph glyph-name="glyph80" horiz-adv-x="471" 
 />
    <glyph glyph-name="glyph81" horiz-adv-x="471" 
 />
    </font>
</defs>
</svg>
